<svg xmlns="http://www.w3.org/2000/svg" width="169.707" height="65.549" viewBox="0 0 169.707 65.549">
  <g id="Group_336" data-name="Group 336" transform="translate(-2205.658 -6165.251)">
    <path id="Path_1039" data-name="Path 1039" d="M402.123,412.254h-6.979c-3.7,0-4.119,4.117-4.119,4.117v1.957" transform="translate(1815.633 5763.258)" fill="none" stroke="#fff" stroke-miterlimit="10" stroke-width="2"/>
    <path id="Path_1040" data-name="Path 1040" d="M535.7,456.653h21.172a1.4,1.4,0,0,0,1.4-1.4V404.963a1.4,1.4,0,0,0-1.4-1.4h-141.2c-18.5,0-17.5,33.134-17.5,33.134v18.56a1.4,1.4,0,0,0,1.4,1.4h24.38" transform="translate(1816.099 5762.69)" fill="none" stroke="#fff" stroke-miterlimit="10" stroke-width="2"/>
    <line id="Line_292" data-name="Line 292" x2="35.796" transform="translate(2271.498 6219.343)" fill="none" stroke="#fff" stroke-miterlimit="10" stroke-width="2"/>
    <path id="Path_1041" data-name="Path 1041" d="M421.44,409.921c-18.284-.875-15.58,20.076-15.58,20.076h15.58Z" transform="translate(1816.592 5763.104)" fill="none" stroke="#fff" stroke-linejoin="round" stroke-width="2"/>
    <line id="Line_293" data-name="Line 293" x1="20" transform="translate(2251.275 6180.111)" fill="#fff" stroke="#fff" stroke-width="2"/>
    <line id="Line_336" data-name="Line 336" x1="20" transform="translate(2281.275 6180.111)" fill="#fff" stroke="#fff" stroke-width="2"/>
    <line id="Line_337" data-name="Line 337" x1="20" transform="translate(2312.518 6180.111)" fill="#fff" stroke="#fff" stroke-width="2"/>
    <line id="Line_338" data-name="Line 338" x1="20" transform="translate(2343.761 6180.111)" fill="#fff" stroke="#fff" stroke-width="2"/>
    <path id="Path_1042" data-name="Path 1042" d="M452.728,422.948a.79.79,0,0,1-.789.791H433.517a.79.79,0,0,1-.789-.791v-10.7a.791.791,0,0,1,.789-.792h18.421a.791.791,0,0,1,.789.792Z" transform="translate(1818.355 5764.206)" fill="none" stroke="#fff" stroke-miterlimit="10" stroke-width="2"/>
    <path id="Path_1072" data-name="Path 1072" d="M452.728,422.948a.79.79,0,0,1-.789.791H433.517a.79.79,0,0,1-.789-.791v-10.7a.791.791,0,0,1,.789-.792h18.421a.791.791,0,0,1,.789.792Z" transform="translate(1848.355 5764.206)" fill="none" stroke="#fff" stroke-miterlimit="10" stroke-width="2"/>
    <path id="Path_1073" data-name="Path 1073" d="M452.728,422.948a.79.79,0,0,1-.789.791H433.517a.79.79,0,0,1-.789-.791v-10.7a.791.791,0,0,1,.789-.792h18.421a.791.791,0,0,1,.789.792Z" transform="translate(1879.598 5764.206)" fill="none" stroke="#fff" stroke-miterlimit="10" stroke-width="2"/>
    <path id="Path_1074" data-name="Path 1074" d="M452.728,422.948a.79.79,0,0,1-.789.791H433.517a.79.79,0,0,1-.789-.791v-10.7a.791.791,0,0,1,.789-.792h18.421a.791.791,0,0,1,.789.792Z" transform="translate(1910.841 5764.206)" fill="none" stroke="#fff" stroke-miterlimit="10" stroke-width="2"/>
    <line id="Line_295" data-name="Line 295" x2="35.796" transform="translate(2271.498 6219.343)" fill="#fff" stroke="#fff" stroke-width="2"/>
    <line id="Line_296" data-name="Line 296" x2="37.513" transform="translate(2281.498 6219.343)" fill="none" stroke="#fff" stroke-miterlimit="10" stroke-width="2"/>
    <path id="Path_1044" data-name="Path 1044" d="M427.181,454.041A10.458,10.458,0,1,1,437.638,464.5,10.456,10.456,0,0,1,427.181,454.041Z" transform="translate(1817.993 5765.303)" fill="none" stroke="#fff" stroke-miterlimit="10" stroke-width="2"/>
    <path id="Path_1045" data-name="Path 1045" d="M490.286,454.041A10.458,10.458,0,1,1,500.743,464.5,10.456,10.456,0,0,1,490.286,454.041Z" transform="translate(1835.112 5765.303)" fill="none" stroke="#fff" stroke-miterlimit="10" stroke-width="2"/>
    <path id="Path_1046" data-name="Path 1046" d="M404.438,447.831a.288.288,0,0,0,.287-.289v-10.1a.287.287,0,0,0-.287-.29H398.19c-.048,1.663-.019,2.687-.019,2.687v7.99Z" transform="translate(1816.099 5764.883)" fill="none" stroke="#fff" stroke-miterlimit="10" stroke-width="2"/>
    <line id="Line_297" data-name="Line 297" y2="9.733" transform="translate(2206.658 6184.305)" fill="none" stroke="#fff" stroke-miterlimit="10" stroke-width="2"/>
    <line id="Line_298" data-name="Line 298" x1="2.998" transform="translate(2286.156 6209.831)" fill="none" stroke="#fff" stroke-linejoin="round" stroke-width="2"/>
    <line id="Line_339" data-name="Line 339" x1="2.998" transform="translate(2314.296 6209.831)" fill="none" stroke="#fff" stroke-linejoin="round" stroke-width="2"/>
    <line id="Line_299" data-name="Line 299" x1="2.998" transform="translate(2277.307 6209.831)" fill="none" stroke="#fff" stroke-linejoin="round" stroke-width="2"/>
    <line id="Line_340" data-name="Line 340" x1="2.998" transform="translate(2305.446 6209.831)" fill="none" stroke="#fff" stroke-linejoin="round" stroke-width="2"/>
    <line id="Line_300" data-name="Line 300" x1="2.999" transform="translate(2268.456 6209.831)" fill="none" stroke="#fff" stroke-linejoin="round" stroke-width="2"/>
    <line id="Line_341" data-name="Line 341" x1="2.999" transform="translate(2296.595 6209.831)" fill="none" stroke="#fff" stroke-linejoin="round" stroke-width="2"/>
    <line id="Line_301" data-name="Line 301" x1="32.354" transform="translate(2342.011 6210.557)" fill="none" stroke="#fff" stroke-miterlimit="10" stroke-width="2"/>
    <path id="Path_1049" data-name="Path 1049" d="M434.884,453.537a2.252,2.252,0,1,1,2.252,2.252,2.254,2.254,0,0,1-2.252-2.252" transform="translate(1818.496 5765.805)" fill="#fff"/>
    <path id="Path_1050" data-name="Path 1050" d="M497.989,453.537a2.252,2.252,0,1,1,2.252,2.252,2.254,2.254,0,0,1-2.252-2.252" transform="translate(1835.615 5765.805)" fill="#fff"/>
  </g>
</svg>
