<svg xmlns="http://www.w3.org/2000/svg" width="65.487" height="105.097" viewBox="0 0 65.487 105.097">
  <g id="Group_362" data-name="Group 362" transform="translate(-1813.256 -6468.741)">
    <path id="Path_1064" data-name="Path 1064" d="M87.754,270.363v7.307H55.593v-7.307" transform="translate(1774.827 6295.168)" fill="none" stroke="#fff" stroke-linejoin="round" stroke-width="2"/>
    <line id="Line_329" data-name="Line 329" x2="65.487" transform="translate(1813.256 6572.838)" fill="none" stroke="#fff" stroke-linejoin="round" stroke-width="2"/>
    <path id="Path_1058" data-name="Path 1058" d="M626.868,281.055l27.447,1.349V193.88l-27.447,4.457Z" transform="translate(1222.389 6275.861)" fill="none" stroke="#fff" stroke-linejoin="round" stroke-width="2"/>
    <path id="Path_1061" data-name="Path 1061" d="M640.453,281.548V288.9l15.224.766v-7.356" transform="translate(1214.547 6275.861)" fill="none" stroke="#fff" stroke-linejoin="round" stroke-width="2"/>
    <path id="Path_1068" data-name="Path 1068" d="M626.868,270.852l19.154.553V193.88l-19.154,2.846Z" transform="translate(1226.536 6281.361)" fill="none" stroke="#fff" stroke-linejoin="round" stroke-width="2"/>
    <path id="Path_1069" data-name="Path 1069" d="M654.315,281.054,626.868,282.4V193.88l27.447,4.457Z" transform="translate(1189.389 6275.861)" fill="none" stroke="#fff" stroke-linejoin="round" stroke-width="2"/>
    <path id="Path_1070" data-name="Path 1070" d="M655.677,281.548V288.9l-15.224.766v-7.356" transform="translate(1182.284 6275.861)" fill="none" stroke="#fff" stroke-linejoin="round" stroke-width="2"/>
    <path id="Path_1071" data-name="Path 1071" d="M646.021,270.851l-19.154.553V193.88l19.154,2.846Z" transform="translate(1193.536 6281.361)" fill="none" stroke="#fff" stroke-linejoin="round" stroke-width="2"/>
  </g>
</svg>
