<svg xmlns="http://www.w3.org/2000/svg" width="34.695" height="91.933" viewBox="0 0 34.695 91.933">
  <g id="Group_345" data-name="Group 345" transform="translate(-1629.51 -6164.422)">
    <path id="Path_1025" data-name="Path 1025" d="M88.1,59.959H55.386a.989.989,0,0,1-.992-.992V2.215a.994.994,0,0,1,.992-1H88.1a.994.994,0,0,1,.992,1V6.958a.992.992,0,1,1-1.983,0V3.206H56.377V57.982H87.1v-4a.992.992,0,0,1,1.983,0v4.984a.989.989,0,0,1-.992.992" transform="translate(1575.116 6168.494)" fill="#fff"/>
    <path id="Path_1028" data-name="Path 1028" d="M61.489,10.332a.993.993,0,0,1-.992-.992V-42.685a.993.993,0,0,1,.992-.992.993.993,0,0,1,.992.992V9.341a.993.993,0,0,1-.992.992" transform="translate(1601.723 6215.719)" fill="#fff"/>
    <path id="Path_1029" data-name="Path 1029" d="M67.447,30.187H57.511a.993.993,0,0,1-.992-.992V12.8a.993.993,0,0,1,.992-.992h9.937a.989.989,0,0,1,.992.992V29.2a.989.989,0,0,1-.992.992M58.5,28.2h7.959V13.792H58.5Z" transform="translate(1584.38 6214.667)" fill="#fff"/>
    <path id="Path_1030" data-name="Path 1030" d="M66.971,7.5H56.131c-.3,0-.541-.439-.541-.992V1.223c0-.547.243-.992.541-.992H66.971c.3,0,.541.445.541.992v5.29c0,.552-.242.992-.541.992m-10.3-1.978H66.43V2.219H56.672Z" transform="translate(1585.308 6164.191)" fill="#fff"/>
    <path id="Path_1031" data-name="Path 1031" d="M88.091,22.65h-32.7a.989.989,0,0,1-.992-.992V17.168a.989.989,0,0,1,.992-.992h32.7a.989.989,0,0,1,.992.992v4.491a.989.989,0,0,1-.992.992M56.373,20.667H87.1V18.159H56.373Z" transform="translate(1575.121 6233.705)" fill="#fff"/>
    <path id="Path_1032" data-name="Path 1032" d="M88.092,29.572h-32.7a.98.98,0,0,1-.788-.391,1,1,0,0,1-.172-.863l3.848-14.031a.994.994,0,0,1,.959-.729h7.536a.993.993,0,0,1,.992.992v6.024h7.954V14.55a.993.993,0,0,1,.992-.992h7.541a.992.992,0,0,1,.954.729l3.848,14.031a1,1,0,0,1-.959,1.254M56.685,27.589H86.8L83.488,15.541H77.7v6.024a.989.989,0,0,1-.992.992H66.772a.989.989,0,0,1-.992-.992V15.541H59.992Z" transform="translate(1575.119 6222.292)" fill="#fff"/>
    <path id="Path_1033" data-name="Path 1033" d="M63.708,8.241a.993.993,0,0,1-.992-.992V4.087H59.555a.992.992,0,1,1,0-1.983h4.154A.993.993,0,0,1,64.7,3.1V7.249a.993.993,0,0,1-.992.992" transform="translate(1593.292 6172.357)" fill="#fff"/>
    <path id="Path_1034" data-name="Path 1034" d="M63.708,16.24H59.555a.992.992,0,1,1,0-1.983h3.162V11.095a.992.992,0,0,1,1.983,0v4.154a.993.993,0,0,1-.992.992" transform="translate(1593.292 6207.229)" fill="#fff"/>
    <path id="Path_1035" data-name="Path 1035" d="M60.7,16.24H56.545a.993.993,0,0,1-.992-.992V11.095a.994.994,0,0,1,1.988,0v3.162H60.7a.992.992,0,0,1,0,1.983" transform="translate(1580.169 6207.229)" fill="#fff"/>
    <path id="Path_1036" data-name="Path 1036" d="M56.546,8.241a.993.993,0,0,1-.992-.992V3.1a.993.993,0,0,1,.992-.992H60.7a.992.992,0,1,1,0,1.983H57.537V7.249a.993.993,0,0,1-.992.992" transform="translate(1580.173 6172.357)" fill="#fff"/>
  </g>
</svg>
