<svg xmlns="http://www.w3.org/2000/svg" width="174.837" height="83.265" viewBox="0 0 174.837 83.265">
  <g id="Group_360" data-name="Group 360" transform="translate(1 1)">
    <rect id="Rectangle_77" data-name="Rectangle 77" width="112.765" height="49.03" transform="translate(30.458 0)" fill="none" stroke="#fff" stroke-linejoin="round" stroke-width="2"/>
    <path id="Subtraction_1" data-name="Subtraction 1" d="M172.837,27.213H143.223V0h29.614V27.213Zm-142.38,0H0V0H30.458V27.213Z" transform="translate(0 10.908)" fill="rgba(0,0,0,0)" stroke="#fff" stroke-linejoin="round" stroke-width="2"/>
    <path id="Path_501" data-name="Path 501" d="M504.915,14.587H510.4V51.07H412.726V14.587h92.189" transform="translate(-374.251 -8.106)" fill="none" stroke="#fff" stroke-linecap="round" stroke-width="2"/>
    <path id="Path_503" data-name="Path 503" d="M464.858,79.822v43.144H454.693V79.822" transform="translate(-442.072 -41.701)" fill="none" stroke="#fff" stroke-linejoin="round" stroke-width="2"/>
    <path id="Path_502" data-name="Path 502" d="M464.858,79.822v41.491H454.693V79.822" transform="translate(-304.991 -40.047)" fill="none" stroke="#fff" stroke-linejoin="round" stroke-width="2"/>
    <line id="Line_287" data-name="Line 287" x2="35.756" transform="translate(0 81.265)" fill="none" stroke="#fff" stroke-linejoin="round" stroke-width="2"/>
    <line id="Line_286" data-name="Line 286" x2="35.756" transform="translate(137.081 81.265)" fill="none" stroke="#fff" stroke-linejoin="round" stroke-width="2"/>
    <line id="Line_290" data-name="Line 290" y2="2.685" transform="translate(17.791 59.791)" fill="none" stroke="#fff" stroke-linejoin="round" stroke-width="2"/>
    <line id="Line_288" data-name="Line 288" y2="2.685" transform="translate(154.872 59.791)" fill="none" stroke="#fff" stroke-linejoin="round" stroke-width="2"/>
    <line id="Line_291" data-name="Line 291" y2="2.687" transform="translate(17.791 67.718)" fill="none" stroke="#fff" stroke-linejoin="round" stroke-width="2"/>
    <line id="Line_289" data-name="Line 289" y2="2.687" transform="translate(154.872 67.718)" fill="none" stroke="#fff" stroke-linejoin="round" stroke-width="2"/>
  </g>
</svg>
